<?xml version="1.0" encoding="utf-8"?>
<!-- CBS eye icon only; inline fill so <img> reliably renders (class-based CSS can be dropped) -->
<svg xmlns="http://www.w3.org/2000/svg" viewBox="0 0 152 152" role="img" aria-hidden="true">
	<title>CBS</title>
	<path
		fill="#EE2824"
		d="M149.1,75.9c0,41.7-32.6,75.6-74.3,75.6c-41.5,0-74.5-33.9-74.5-75.6c0-41.3,33-75.3,74.5-75.3
			C116.5,0.6,149.1,34.6,149.1,75.9z M5.5,75.9C16,98,40.7,119.6,74.8,119.6c33.9,0,58.8-21.6,69.3-43.7
			c-10.5-21.8-35.3-43.3-69.3-43.3C40.7,32.6,16,54.1,5.5,75.9z M74.8,36c-22.1,0-40.1,18-40.1,39.9c0,22.3,17.9,40.1,40.1,40.1
			c22.1,0,39.9-17.8,39.9-40.1C114.8,54,96.9,36,74.8,36z"
	/>
</svg>
