<svg width="133" height="139" viewBox="0 0 133 139" fill="none" xmlns="http://www.w3.org/2000/svg">
<path fill-rule="evenodd" clip-rule="evenodd" d="M82.3044 138.625L1.01367 112.212L1.01367 26.7381L1.03238 26.7321L1.03239 26.7517L1.044 112.19L1.044 112.202L82.3044 138.625Z" fill="black"/>
<path d="M82.2855 0.331329L1.03238 26.7321L1.03239 26.7517L23.2554 42.8943L50.6288 23.0064C56.2018 18.9574 63.7483 18.9574 69.3213 23.0064L73.8604 26.3043L82.2972 0.347388L82.2855 0.331329Z" fill="black"/>
<path d="M1.03239 26.7517L1.044 112.19L23.825 95.6333L13.4229 63.619C11.2942 57.0675 13.6262 49.8904 19.1992 45.8414L23.2554 42.8943L1.03239 26.7517Z" fill="black"/>
<path d="M1.044 112.202L82.3044 138.625L73.5084 111.554H40.5505C33.6619 111.554 27.5566 107.118 25.4279 100.567L23.825 95.6333L1.044 112.19L1.044 112.202Z" fill="black"/>
<path d="M82.3044 138.625L132.514 69.4851L132.507 69.4752L104.626 69.4707L94.5222 100.567C92.3935 107.118 86.2883 111.554 79.3996 111.554H73.5084L82.3044 138.625Z" fill="black"/>
<path d="M132.507 69.4752L82.2972 0.347388L73.8604 26.3043L100.751 45.8414C106.324 49.8904 108.656 57.0675 106.527 63.619L104.626 69.4707L132.507 69.4752Z" fill="black"/>
</svg>
