<svg xmlns="http://www.w3.org/2000/svg" viewBox="0 0 78 94" role="img" aria-hidden="true">
	<title>University of New Hampshire</title>
	<!-- Shield mark: inline fills for reliable rendering as <img> (class/CSS in SVG is flaky) -->
	<g fill="#1e293b">
		<path
			d="M2.5,1.58v45.35c-0.01,11.87,3.28,21.36,10.06,29C18,82.05,26.03,89.55,39.98,93.24l0.67,0.18l0.68-0.18
			c13.94-3.7,21.98-11.2,27.42-17.32c6.78-7.63,10.07-17.12,10.06-29V1.58H2.5z M76.18,46.93c0.01,11.21-3.07,20.12-9.4,27.25
			C61.52,80.09,53.85,87.2,40.65,90.7c-13.19-3.5-20.87-10.61-26.12-16.53c-6.33-7.13-9.41-16.04-9.4-27.25V4.21h71.04V46.93z"
		/>
		<path
			d="M27.96,22.8l5.43,15.83h0.1V22.8h7.17V12.34H13.26v34.59c-0.01,9.25,2.33,16.19,7.35,21.84
			c4.45,5.01,10.28,10.4,20.04,13.47v-23.7h-7.77l-5.67-18.52h-0.1v18.52h-7.17V22.8H27.96z"
		/>
		<polyline
			points="53.83,22.8 53.83,36.79 47.95,36.79 47.95,22.8 40.65,22.8 40.65,58.54 48.07,58.54 48.07,44.15
			53.96,44.15 53.96,58.54 61.36,58.54 61.36,22.8 53.83,22.8"
		/>
	</g>
</svg>
