<svg xmlns="http://www.w3.org/2000/svg" viewBox="0 0 216 216" role="img" aria-label="Tilt">
  <title>Tilt</title>
  <!-- Icon only: circular mark (no grey wordmark path from full tilt.svg) -->
  <path
    fill="#00A0DB"
    d="M108.6,145.1c0,6.6-5.3,11.8-11.8,11.8c-6.5,0-11.8-5.3-11.8-11.8c0-6.5,5.3-11.8,11.8-11.8 C103.3,133.3,108.6,138.6,108.6,145.1 M119.3,108.8c0-6.5-5.3-11.8-11.8-11.8c-6.5,0-11.8,5.3-11.8,11.8c0,6.5,5.3,11.8,11.8,11.8 C114,120.7,119.3,115.4,119.3,108.8 M130,72.5c0-6.5-5.3-11.8-11.8-11.8c-6.5,0-11.9,5.3-11.9,11.8c0,6.5,5.3,11.8,11.9,11.8 C124.7,84.4,130,79.1,130,72.5 M108.3,23.7c46.6,0,84.6,37.9,84.6,84.6c0,46.6-37.9,84.6-84.6,84.6c-46.6,0-84.6-37.9-84.6-84.6 C23.7,61.6,61.6,23.7,108.3,23.7 M108.3,180.9c40.1,0,72.7-32.6,72.7-72.7c0-40.1-32.6-72.7-72.7-72.7c-40.1,0-72.7,32.6-72.7,72.7 C35.6,148.3,68.2,180.9,108.3,180.9"
  />
</svg>
