<svg version="1.1" xmlns="http://www.w3.org/2000/svg" xmlns:xlink="http://www.w3.org/1999/xlink" viewBox="0 0 400 95" style="enable-background:new 0 0 400 95;" xml:space="preserve" aria-labelledby="University of New Hampshire logo" title="University of New Hampshire Logo" role="img">
<style type="text/css">
	.st0{fill:#1e293b;}
</style>
<g>
	<g>
		<path class="st0" d="M78.81,87.51c0,3.31-2.6,5.91-5.98,5.91c-3.35,0-6.02-2.6-6.02-5.91c0-3.24,2.67-5.84,6.02-5.84
			C76.21,81.67,78.81,84.27,78.81,87.51z M68.3,87.51c0,2.6,1.92,4.66,4.56,4.66c2.56,0,4.45-2.07,4.45-4.63
			c0-2.6-1.89-4.7-4.49-4.7S68.3,84.95,68.3,87.51z M71.9,90.57h-1.35v-5.84c0.53-0.11,1.28-0.18,2.24-0.18
			c1.1,0,1.6,0.18,2.03,0.43c0.32,0.25,0.57,0.71,0.57,1.28c0,0.64-0.5,1.14-1.21,1.35v0.07c0.57,0.21,0.89,0.64,1.07,1.42
			c0.18,0.89,0.29,1.25,0.43,1.46h-1.46c-0.18-0.21-0.29-0.75-0.46-1.42c-0.11-0.64-0.46-0.93-1.21-0.93H71.9V90.57z M71.94,87.26
			h0.64c0.75,0,1.35-0.25,1.35-0.85c0-0.54-0.39-0.89-1.25-0.89c-0.36,0-0.61,0.04-0.75,0.07V87.26z"></path>
	</g>
	<g>
		<path class="st0" d="M2.5,1.58v45.35c-0.01,11.87,3.28,21.36,10.06,29C18,82.05,26.03,89.55,39.98,93.24l0.67,0.18l0.68-0.18
			c13.94-3.7,21.98-11.2,27.42-17.32c6.78-7.63,10.07-17.12,10.06-29V1.58H2.5z M76.18,46.93c0.01,11.21-3.07,20.12-9.4,27.25
			C61.52,80.09,53.85,87.2,40.65,90.7c-13.19-3.5-20.87-10.61-26.12-16.53c-6.33-7.13-9.41-16.04-9.4-27.25V4.21h71.04V46.93z"></path>
		<path class="st0" d="M27.96,22.8l5.43,15.83h0.1V22.8h7.17V12.34H13.26v34.59c-0.01,9.25,2.33,16.19,7.35,21.84
			c4.45,5.01,10.28,10.4,20.04,13.47v-23.7h-7.77l-5.67-18.52h-0.1v18.52h-7.17V22.8H27.96z"></path>
		<polyline class="st0" points="53.83,22.8 53.83,36.79 47.95,36.79 47.95,22.8 40.65,22.8 40.65,58.54 48.07,58.54 48.07,44.15
			53.96,44.15 53.96,58.54 61.36,58.54 61.36,22.8 53.83,22.8 		"></polyline>
	</g>
	<g>
		<path class="st0" d="M96.85,16.93h9.83v2.97h-2.94v11.22c0,1.68-0.03,3.27,0.86,4.72c0.86,1.39,2.31,1.98,3.93,1.98
			c0.82,0,1.39-0.17,2.14-0.5c1.22-0.49,1.91-1.88,2.28-3.07c0.3-1.09,0.23-2.38,0.23-3.46V19.9h-2.9v-2.97h9.4v2.97h-2.38v10.49
			c0,1.78,0.1,3.83-0.63,5.51c-0.73,1.65-1.95,3.04-3.5,3.93c-1.25,0.76-3.6,1.12-5.08,1.12c-1.45,0-3.56-0.43-4.82-1.12
			c-1.39-0.73-2.41-1.91-3.13-3.27c-0.96-1.72-0.92-3.66-0.92-5.58V19.9h-2.38V16.93z"></path>
		<path class="st0" d="M126.45,25.87c1.12-2.24,2.8-3.3,5.28-3.3c2.71,0,4.75,1.68,5.15,3.3c0.23,0.92,0.23,1.62,0.23,2.38v9.5h2.18
			v2.8h-8.61v-2.8h2.05v-7.89c0-0.86,0.03-1.55-0.23-2.41c-0.3-1.06-1.19-1.85-2.34-1.85c-3.2,0-3.4,3-3.4,5.44v6.7h2.11v2.8h-8.81
			v-2.8h2.31V25.81h-2.31V23h6.4V25.87z"></path>
		<path class="st0" d="M140.79,40.56v-2.8h2.34V25.81h-2.34V23h6.73v14.75h2.05v2.8H140.79z M147.53,16.3v4.03h-4.39V16.3H147.53z"></path>
		<path class="st0" d="M149.41,23h8.25v2.81h-2.18l3.27,11.19h0.03l3.7-11.19h-2.21V23h7.72v2.81h-1.35l-5.18,14.75h-5.44
			l-5.21-14.75h-1.39V23z"></path>
		<path class="st0" d="M172.74,32.67c-0.03,2.51,1.02,5.41,4.03,5.41c1.75,0,2.97-1.19,3.27-2.87h4.19
			c-0.3,3.86-4.12,5.74-7.69,5.74c-1.12,0-2.64-0.36-3.66-0.83c-1.15-0.53-1.91-1.19-2.67-2.21c-1.39-1.78-1.91-4.09-1.91-6.3
			c0-4.82,2.74-9.04,8.05-9.04c2.34,0,4.55,0.63,6.17,2.34c1.42,1.52,1.85,3.99,1.95,5.97c0.03,0.53,0.1,1.02,0.03,1.52
			c0,0.1-0.03,0.17-0.03,0.26H172.74z M180.03,30.13c-0.03-1.98-0.82-4.82-3.33-4.82c-2.77,0-3.66,2.51-3.86,4.82H180.03z"></path>
		<path class="st0" d="M192.04,26.73c0.69-3.07,2.77-4.32,5.84-4.03v4.29c-0.49-0.13-1.02-0.26-1.55-0.26
			c-1.62,0-3.04,0.99-3.6,2.47c-0.43,1.19-0.43,2.8-0.43,4.03v4.52h2.8v2.8h-9.5v-2.8h2.31V25.81h-2.31V23h6.43V26.73z"></path>
		<path class="st0" d="M209.37,28.64c-0.2-1.88-0.89-3.43-3-3.43c-1.42,0-2.74,0.63-2.74,2.24c0,0.56,0.17,0.92,0.53,1.35
			c0.3,0.23,0.66,0.33,0.99,0.5c1.88,0.53,5.41,0.79,6.73,2.44c0.89,1.09,1.22,2.11,1.22,3.5c0.03,1.02-0.43,2.61-1.09,3.53
			c-0.79,1.09-2.71,2.18-5.18,2.18c-1.65,0-3.43-0.76-4.32-2.18v1.78h-3.17v-6.1h3.43c0.13,2.18,1.09,3.7,3.43,3.7
			c1.22,0,2.47-0.86,2.47-2.18c0-0.66-0.2-1.45-0.86-1.78c-1.98-0.96-4.39-0.73-6.27-1.98c-1.62-1.12-2.24-2.64-2.24-4.59
			c-0.17-1.45,0.69-2.51,1.15-3.17c0.66-0.92,2.84-1.88,4.88-1.88c1.52,0,3.23,0.66,4.16,1.88V23h3.1v5.64H209.37z"></path>
		<path class="st0" d="M214.71,40.56v-2.8h2.34V25.81h-2.34V23h6.73v14.75h2.05v2.8H214.71z M221.44,16.3v4.03h-4.39V16.3H221.44z"></path>
		<path class="st0" d="M235.47,35.94c0,2.08-0.66,3.99-2.84,4.69c-0.36,0.13-1.45,0.33-1.81,0.33c-0.79,0-1.25-0.13-2.01-0.33
			c-1.52-0.46-2.34-1.52-2.67-3c-0.17-0.73-0.13-2.28-0.13-3.07v-8.74h-2.61V23h2.61v-3l4.39-1.48V23h4.39v2.81h-4.39v10.99
			c0,0.33,0.2,0.99,0.53,1.12c2.01,0.82,1.88-1.98,1.85-3.17h2.71V35.94z"></path>
		<path class="st0" d="M236.3,23h8.41v2.81h-2.28l3.37,9.27l0.17,0.43l3.37-9.7h-2.18V23h7.79v2.81h-1.39l-6.27,15.84
			c-1.06,2.74-2.08,4.69-5.38,4.69c-0.89,0-1.78,0-2.64-0.17v-3.04c0.59,0.03,1.19,0.1,1.78,0.1c1.58,0,1.91-0.53,2.47-1.88
			l0.23-0.56l-6.04-14.98h-1.42V23z"></path>
	</g>
	<g>
		<path class="st0" d="M266.33,38.05c-1.45-1.81-2.01-4.12-2.01-6.4c0-2.47,0.59-4.72,2.31-6.57c1.55-1.65,3.89-2.51,6.14-2.51
			c5.64,0,8.68,3.93,8.68,9.24c0,5.08-3.13,9.14-8.55,9.14C270.52,40.95,267.82,39.89,266.33,38.05z M268.91,31.75
			c0,1.45,0.13,2.77,0.82,4.09c0.63,1.25,1.75,2.21,3.23,2.21c1.58,0,2.67-1.12,3.27-2.47c0.5-1.16,0.63-2.67,0.63-3.89
			c0-1.45-0.13-2.71-0.79-4.03c-0.63-1.22-1.68-2.18-3.17-2.18C269.73,25.48,268.91,29.3,268.91,31.75z"></path>
		<path class="st0" d="M282.44,25.81V23h2.57v-1.52c0-1.62,0.33-3.33,1.78-4.26c1.42-0.96,2.77-1.29,4.49-1.29
			c0.83,0,1.65,0.2,2.48,0.43v2.97c-0.59-0.1-1.16-0.2-1.75-0.2c-0.89,0-1.62,0.2-2.24,0.89c-0.4,0.53-0.36,1.75-0.36,2.31V23h3
			v2.81h-3v11.94h2.9v2.8h-9.67v-2.8h2.38V25.81H282.44z"></path>
	</g>
	<g>
		<path class="st0" d="M96.85,73.72v-2.97h2.74V53.06h-2.74v-2.97h8.78l8.78,18.58h0.03V53.06h-2.77v-2.97h9.31v2.97h-2.57v20.66
			h-5.84l-8.98-19.07h-0.03v16.1h2.61v2.97H96.85z"></path>
		<path class="st0" d="M125.26,65.83c-0.03,2.51,1.02,5.41,4.03,5.41c1.75,0,2.97-1.19,3.27-2.87h4.19
			c-0.3,3.86-4.12,5.74-7.69,5.74c-1.12,0-2.64-0.36-3.66-0.83c-1.15-0.53-1.91-1.19-2.67-2.21c-1.39-1.78-1.91-4.09-1.91-6.3
			c0-4.82,2.74-9.04,8.05-9.04c2.34,0,4.55,0.63,6.17,2.34c1.42,1.52,1.85,3.99,1.95,5.97c0.03,0.53,0.1,1.02,0.03,1.52
			c0,0.1-0.03,0.17-0.03,0.26H125.26z M132.56,63.29c-0.03-1.98-0.82-4.82-3.33-4.82c-2.77,0-3.66,2.51-3.86,4.82H132.56z"></path>
		<path class="st0" d="M146.16,56.16v2.81h-2.34l2.51,11.35h0.03l3.73-14.16h5.35l3.27,14.16h0.03l2.97-11.35h-2.24v-2.81h7.79v2.81
			h-1.62l-4.22,14.75h-5.54l-3.17-13.17l-3.6,13.17h-5.54l-4.22-14.75h-1.55v-2.81H146.16z"></path>
	</g>
	<g>
		<path class="st0" d="M177.74,73.72v-2.97h2.71V53.06h-2.71v-2.97h10.1v2.97h-2.87v7.19h9.57v-7.19h-2.87v-2.97h10.13v2.97h-2.74
			v17.69h2.74v2.97h-10.13v-2.97h2.87v-7.52h-9.57v7.52h2.87v2.97H177.74z"></path>
		<path class="st0" d="M214.17,70.91c-0.99,2.21-3.1,3.2-5.48,3.2c-2.44,0-4.82-1.39-5.21-3.2c-0.36-1.15-0.4-1.75-0.4-2.28
			c0-1.48,0.59-2.97,1.72-3.96c0.86-0.79,2.84-1.48,3.99-1.52c0.82-0.03,1.72-0.17,2.54-0.17c0.79,0,1.58,0.1,2.38,0.13
			c0.23-2.11-0.07-4.75-2.8-4.75c-1.91,0-2.84,1.32-2.8,3.17h-4.36c0.1-4.29,3.3-5.81,7.16-5.81c2.74,0,5.31,0.73,6.5,3.43
			c0.26,0.59,0.33,0.96,0.43,1.65c0.1,0.76,0.13,1.48,0.13,2.24v7.89h2.28v2.77h-6.07V70.91z M211.76,65.6
			c-2.24,0-4.29,0.53-4.29,3.2c0,1.35,0.89,2.44,2.31,2.44c3.2,0,3.96-3.07,4.06-5.64H211.76z"></path>
		<path class="st0" d="M228.04,59.03c1.12-2.24,2.97-3.3,5.51-3.3c2.34,0,4.06,0.89,4.88,3.3c0.96-2.24,2.84-3.3,5.11-3.3
			c2.51,0,4.29,1.15,5.15,3.3c0.43,1.09,0.3,1.88,0.3,2.74v9.14h2.14v2.8h-8.61v-2.8h2.08v-7.82c0-1.78-0.23-4.12-2.61-4.12
			c-1.29,0-2.21,0.59-2.77,1.78c-0.56,1.15-0.56,2.14-0.56,3.4v6.76h2.05v2.8h-8.45v-2.8h2.01v-8.12c0-0.99,0-1.75-0.43-2.67
			c-0.33-0.69-1.19-1.15-1.95-1.15c-1.85,0-2.84,1.12-3.33,2.77c-0.23,0.86-0.23,1.68-0.23,2.57v6.6h2.11v2.8h-8.81v-2.8h2.31V58.97
			h-2.31v-2.81h6.4V59.03z"></path>
		<path class="st0" d="M257.81,59.13c1.22-2.38,3.1-3.4,5.18-3.4c2.67,0,4.45,1.09,6.04,3.4c0.69,1.02,1.29,3.2,1.29,5.58
			c0,2.64-0.26,4.29-1.65,6.57c-1.12,1.85-3.5,2.84-5.61,2.84c-1.95,0-3.66-0.86-4.98-3.04v5.18h2.47v2.8h-9.17v-2.8h2.31V58.97
			h-2.31v-2.81h6.43V59.13z M258.87,60.71c-0.76,1.45-1.06,2.87-1.06,4.29c0,2.48,0.96,6.14,4.06,6.14c3.17,0,3.93-3.46,3.93-5.97
			s-0.5-6.57-3.8-6.57C260.58,58.6,259.39,59.59,258.87,60.71z"></path>
		<path class="st0" d="M282.13,61.8c-0.2-1.88-0.89-3.43-3-3.43c-1.42,0-2.74,0.63-2.74,2.24c0,0.56,0.17,0.92,0.53,1.35
			c0.3,0.23,0.66,0.33,0.99,0.5c1.88,0.53,5.41,0.79,6.73,2.44c0.89,1.09,1.22,2.11,1.22,3.5c0.03,1.02-0.43,2.61-1.09,3.53
			c-0.79,1.09-2.71,2.18-5.18,2.18c-1.65,0-3.43-0.76-4.32-2.18v1.78h-3.17v-6.1h3.43c0.13,2.18,1.09,3.7,3.43,3.7
			c1.22,0,2.47-0.86,2.47-2.18c0-0.66-0.2-1.45-0.86-1.78c-1.98-0.96-4.39-0.73-6.27-1.98c-1.62-1.12-2.24-2.64-2.24-4.59
			c-0.17-1.45,0.69-2.51,1.15-3.17c0.66-0.92,2.84-1.88,4.88-1.88c1.52,0,3.23,0.66,4.16,1.88v-1.45h3.1v5.64H282.13z"></path>
		<path class="st0" d="M287.29,73.72v-2.8h2.24V52.5h-2.24v-2.8h6.63v8.74c1.22-1.95,2.71-2.71,5.02-2.71c1.45,0,3.2,0.43,4.19,1.55
			c1.06,1.19,1.22,2.64,1.22,4.16v9.47h2.21v2.8h-8.74v-2.8h2.14v-7.89c0-0.66-0.07-1.35-0.17-2.01c-0.1-1.25-1.12-2.28-2.41-2.28
			c-1.58,0-2.47,0.82-3,2.24c-0.49,1.22-0.46,2.44-0.46,3.73v6.2h2.15v2.8H287.29z"></path>
		<path class="st0" d="M307.88,73.72v-2.8h2.34V58.97h-2.34v-2.81h6.73v14.75h2.05v2.8H307.88z M314.61,49.46v4.03h-4.39v-4.03
			H314.61z"></path>
		<path class="st0" d="M324.6,59.89c0.69-3.07,2.77-4.32,5.84-4.03v4.29c-0.49-0.13-1.02-0.26-1.55-0.26c-1.62,0-3.04,0.99-3.6,2.47
			c-0.43,1.19-0.43,2.8-0.43,4.03v4.52h2.8v2.8h-9.5v-2.8h2.31V58.97h-2.31v-2.81h6.43V59.89z"></path>
		<path class="st0" d="M335.72,65.83c-0.03,2.51,1.02,5.41,4.03,5.41c1.75,0,2.97-1.19,3.27-2.87h4.19
			c-0.3,3.86-4.12,5.74-7.69,5.74c-1.12,0-2.64-0.36-3.66-0.83c-1.15-0.53-1.91-1.19-2.67-2.21c-1.39-1.78-1.91-4.09-1.91-6.3
			c0-4.82,2.74-9.04,8.05-9.04c2.34,0,4.55,0.63,6.17,2.34c1.42,1.52,1.85,3.99,1.95,5.97c0.03,0.53,0.1,1.02,0.03,1.52
			c0,0.1-0.03,0.17-0.03,0.26H335.72z M343.02,63.29c-0.03-1.98-0.82-4.82-3.33-4.82c-2.77,0-3.66,2.51-3.86,4.82H343.02z"></path>
	</g>
</g>
</svg>
