<?xml version="1.0" encoding="utf-8"?>
<svg version="1.1" xmlns="http://www.w3.org/2000/svg" viewBox="0 0 73.8891 73.8897" xml:space="preserve">
<path fill="#ffffff" d="M36.94382,0.00002c-20.4028,0-36.9438,16.541-36.9438,36.9453s16.541,36.9444,36.9438,36.9444
	c20.4053,0,36.9453-16.5401,36.9453-36.9444S57.34911,0.00002,36.94382,0.00002 M62.11721,27.47562
	c-0.9082,2.8008-3.7774,4.9365-5.7632,7.2021l-7.8272,7.836c0.3082,4.3008-1.0097,8.0049-4.2119,10.8691
	c-2.0879,2.1992-4.2788,4.0684-6.5727,5.8389c-0.3711-0.502-1.4829-1.0381-0.8731-1.6709c1.5469-1.9307,2.895-3.6924,3.232-6.1289
	c-0.6729-5.167-1.5498-11.0967-2.3589-15.0967h-0.3023l-7.0478,7.4287c0.9399,5.9375-4.145,9.4326-8.0239,13.2979l-2.1553,1.7636
	c-0.4048-0.0263-1.0811-0.7304-1.2158-1.2304c2.1538-2.1328,3.8447-4.583,3.2387-7.7862l-0.9809-6.4775l-3.6411-19.1436
	c-0.3726-1.0644-0.7129-2.3632-1.856-2.8701c-1.4145-0.2314-2.729,0.6709-3.9116,0.8018c-0.1304-0.332-0.1304-0.7012-0.2354-1.0352
	l14.2622-5.7666l0.2398,0.8008l2.6601,16.7031l1.0459,6.336l0.1641,0.164l7.2192-7.0371l-1.3159-8
	c-0.2012-0.7344-0.708-1.4687-1.4463-1.8662c-1.6181-0.5322-3.0698,0.2656-4.457,0.7315c-0.0947-0.4981-0.8418-1.1329-0.3369-1.5313
	l14.4311-6.4004l3.9468,23.3692l0.0991,0.0976c0,0,4.2002-4.0459,5.667-5.8633c1.4649-1.8203-0.7441-9.2715-0.7441-9.2715
	s0.0723-1.3291-1.3809-2.2334c-1.3828-0.5312-2.83,0.1016-4.2129,0.4698l-0.4721-1.2051c4.3471-1.9648,8.7988-4.0332,13.2832-5.9023
	C61.00682,18.87402,62.82521,22.84182,62.11721,27.47562"/>
</svg>
